PathFileType	4	(X/Y/Z)	/Users/itak/Documents/Research/Walk-IL/dataset/trc/00045_00004.trc
DataRate	CameraRate	NumFrames	NumMarkers	Units	OrigDataRate	OrigDataStartFrame	OrigNumFrames
100.000000	100.000000	4	53	mm	100.000000	0	538
Frame#	Time	RPSI			LPSI			L3			STRN			T10			C7			CLAV			RBAK			LBAK			LSHO			LUPA			LAEL			LAOL			LWTS			LWPS			LFRA			LIFD			LHPS			LHTS			RSHO			RUPA			RAEL			RAOL			RWTS			RWPS			RFRA			RIFD			RHTS			RHPS			RBHD			LFHD			RFHD			LBHD			LHIP			RHIP			RASI			LASI			LKNE			LTHI			LANK			LTIP			LTOE			LMT1			LMT5			LHEE			RKNE			RTHI			RANK			RTIP			RTOE			RMT1			RMT5			RHEE			
		X1	Y1	Z1	X2	Y2	Z2	X3	Y3	Z3	X4	Y4	Z4	X5	Y5	Z5	X6	Y6	Z6	X7	Y7	Z7	X8	Y8	Z8	X9	Y9	Z9	X10	Y10	Z10	X11	Y11	Z11	X12	Y12	Z12	X13	Y13	Z13	X14	Y14	Z14	X15	Y15	Z15	X16	Y16	Z16	X17	Y17	Z17	X18	Y18	Z18	X19	Y19	Z19	X20	Y20	Z20	X21	Y21	Z21	X22	Y22	Z22	X23	Y23	Z23	X24	Y24	Z24	X25	Y25	Z25	X26	Y26	Z26	X27	Y27	Z27	X28	Y28	Z28	X29	Y29	Z29	X30	Y30	Z30	X31	Y31	Z31	X32	Y32	Z32	X33	Y33	Z33	X34	Y34	Z34	X35	Y35	Z35	X36	Y36	Z36	X37	Y37	Z37	X38	Y38	Z38	X39	Y39	Z39	X40	Y40	Z40	X41	Y41	Z41	X42	Y42	Z42	X43	Y43	Z43	X44	Y44	Z44	X45	Y45	Z45	X46	Y46	Z46	X47	Y47	Z47	X48	Y48	Z48	X49	Y49	Z49	X50	Y50	Z50	X51	Y51	Z51	X52	Y52	Z52	X53	Y53	Z53	

1	0	-1208.391723632812	1075.347778320312	230.8191070556641	-1229.094482421875	1067.034423828125	68.60040283203125	-1226.688354492188	1122.898681640625	141.1347503662109	-1008.112426757812	1326.51513671875	125.6784133911133	-1256.507446289062	1268.51953125	140.3368530273438	-1214.274536132812	1537.7763671875	128.4931182861328	-1050.849487304688	1451.821044921875	124.5403442382812	-1256.532104492188	1398.2509765625	210.26318359375	-1236.589965820312	1496.535522460938	30.84085655212402	-1138.2626953125	1508.433715820312	-49.31095504760742	-1165.935180664062	1379.512329101562	-123.9347763061523	-1149.786254882812	1160.0078125	-145.2558898925781	-1198.813354492188	1146.056030273438	-52.2152099609375	-1044.041381835938	913.5970458984375	-91.25252532958984	-1122.441528320312	894.3685913085938	-128.3524475097656	-1130.330810546875	1044.943115234375	-149.9611511230469	-1008.88330078125	733.4940185546875	-66.76924133300781	-1083.642578125	806.4674072265625	-128.3915557861328	-1018.117919921875	821.3674926757812	-103.8042526245117	-1128.401123046875	1522.998291015625	300.0539855957031	-1137.152587890625	1451.52783203125	371.1468200683594	-1163.383056640625	1182.110473632812	392.7944030761719	-1166.349731445312	1155.705688476562	295.3616943359375	-1042.299072265625	919.1508178710938	356.9647521972656	-1103.357666015625	907.3145141601562	425.1526794433594	-1150.53173828125	1106.673583984375	407.132080078125	-1034.744262695312	736.102783203125	337.8251953125	-1011.410400390625	809.4967041015625	369.5223083496094	-1064.498901367188	806.3888549804688	422.5030212402344	-1196.192626953125	1714.5419921875	85.32079315185547	-988.4252319335938	1756.4755859375	138.4647674560547	-1023.630981445312	1753.262817382812	46.18716812133789	-1140.294799804688	1717.593383789062	218.5850982666016	-1143.506591796875	965.1905517578125	-52.7857780456543	-1084.38623046875	961.0072631835938	316.6025695800781	-992.4638671875	995.9754028320312	232.3810119628906	-1026.247802734375	1015.817626953125	0.1125421226024628	-1087.77197265625	520.0359497070312	1.843198776245117	-1112.612182617188	656.3167114257812	-37.14430999755859	-1178.6455078125	41.81420516967773	6.711856842041016	-1165.769409179688	288.9146728515625	-14.57600879669189	-965.9454345703125	41.5482177734375	91.46343231201172	-1027.053100585938	51.35545349121094	101.9115753173828	-1053.509887695312	40.56374740600586	-2.286679744720459	-1252.113891601562	47.35519409179688	52.19441223144531	-1098.075317382812	525.4490966796875	266.7209777832031	-1068.360595703125	792.916748046875	310.1743469238281	-1223.348876953125	47.91292190551758	242.8545379638672	-1127.715698242188	403.7289428710938	267.2023010253906	-989.1245727539062	45.41690444946289	212.224365234375	-1051.244140625	50.78129959106445	180.7994537353516	-1074.546264648438	45.01766204833984	272.4889221191406	-1276.910888671875	48.70280075073242	194.4981842041016	
2	0.01	-1208.168579101562	1075.32861328125	230.8101959228516	-1228.902465820312	1067.02294921875	68.52918243408203	-1226.43896484375	1122.80615234375	141.1295928955078	-1008.015197753906	1326.5205078125	125.6731338500977	-1256.37255859375	1268.397216796875	140.3412170410156	-1214.32470703125	1537.703979492188	128.5097045898438	-1050.819458007812	1451.826171875	124.522834777832	-1256.388427734375	1398.144897460938	210.3529663085938	-1236.639038085938	1496.464111328125	30.87111282348633	-1138.33935546875	1508.364379882812	-49.29995346069336	-1166.050048828125	1379.424926757812	-123.9066162109375	-1149.930053710938	1159.937377929688	-145.29248046875	-1198.904296875	1145.97119140625	-52.20059204101562	-1044.346557617188	913.4570922851562	-91.46922302246094	-1122.820678710938	894.282958984375	-128.4872589111328	-1130.561767578125	1044.859375	-150.0259399414062	-1009.206604003906	733.4185180664062	-67.01909637451172	-1084.140502929688	806.3367309570312	-128.625	-1018.452941894531	821.2042846679688	-104.2561492919922	-1128.359741210938	1523.0078125	300.0552978515625	-1136.961303710938	1451.5263671875	371.1819458007812	-1162.654418945312	1182.040405273438	392.8714904785156	-1165.634155273438	1155.625122070312	295.4486389160156	-1040.7373046875	919.4598388671875	356.903076171875	-1101.813110351562	907.4034423828125	425.0707397460938	-1149.6611328125	1106.61474609375	407.1584167480469	-1032.589965820312	736.4895629882812	337.6767883300781	-1009.614562988281	809.8919677734375	369.414794921875	-1062.58251953125	806.5891723632812	422.3506774902344	-1196.213745117188	1714.536987304688	85.30074310302734	-988.4814453125	1756.462280273438	138.5093688964844	-1023.659729003906	1753.239013671875	46.20930862426758	-1140.372192382812	1717.59228515625	218.5644226074219	-1143.27734375	965.1567993164062	-52.82449722290039	-1084.447631835938	960.8115844726562	316.5718078613281	-992.1002807617188	996.0415649414062	232.4523620605469	-1025.851928710938	1015.816162109375	0.1755472272634506	-1087.836181640625	520.0027465820312	1.90220832824707	-1112.595581054688	656.2738647460938	-37.16834259033203	-1178.649658203125	41.80859375	6.709357261657715	-1165.854614257812	288.9291076660156	-14.60579109191895	-965.9531860351562	41.55492401123047	91.46790313720703	-1027.065551757812	51.35173416137695	101.9184799194336	-1053.505981445312	40.56121444702148	-2.276132583618164	-1252.115478515625	47.34809494018555	52.18369674682617	-1098.021850585938	525.4080200195312	266.7489624023438	-1068.0927734375	792.9170532226562	310.1633911132812	-1223.338623046875	47.92141342163086	242.8431243896484	-1127.716918945312	403.7345886230469	267.2142333984375	-989.1168212890625	45.41326522827148	212.2221069335938	-1051.24853515625	50.77707290649414	180.7970123291016	-1074.5537109375	45.00009536743164	272.4913635253906	-1276.891479492188	48.70004272460938	194.4958038330078	
3	0.02	-1207.886962890625	1075.303833007812	230.8022308349609	-1228.649536132812	1067.006713867188	68.44492340087891	-1226.134765625	1122.691528320312	141.1149139404297	-1007.889770507812	1326.531494140625	125.6741561889648	-1256.210815429688	1268.247192382812	140.3319244384766	-1214.38427734375	1537.6064453125	128.5246429443359	-1050.783569335938	1451.834228515625	124.5050354003906	-1256.22412109375	1398.01025390625	210.4409484863281	-1236.690795898438	1496.374633789062	30.89352798461914	-1138.4150390625	1508.281860351562	-49.29227447509766	-1166.152709960938	1379.318725585938	-123.8788375854492	-1150.081176757812	1159.851318359375	-145.3380432128906	-1198.983642578125	1145.86962890625	-52.18077850341797	-1044.7236328125	913.2522583007812	-91.72455596923828	-1123.286010742188	894.1705932617188	-128.6519165039062	-1130.830078125	1044.759155273438	-150.1090545654297	-1009.659423828125	733.2260131835938	-67.35173034667969	-1084.774047851562	806.1682739257812	-128.9089508056641	-1018.901184082031	820.977783203125	-104.7649002075195	-1128.330078125	1523.023193359375	300.0496826171875	-1136.759521484375	1451.53125	371.216064453125	-1161.796997070312	1181.955444335938	392.9598999023438	-1164.775634765625	1155.529174804688	295.5505065917969	-1038.743408203125	919.8953247070312	356.8368530273438	-1099.8486328125	907.5338745117188	424.9742736816406	-1148.585815429688	1106.54443359375	407.1998596191406	-1029.8232421875	737.00732421875	337.50048828125	-1007.2802734375	810.448486328125	369.2872924804688	-1060.115966796875	806.8737182617188	422.1861877441406	-1196.231811523438	1714.538696289062	85.26686859130859	-988.5465698242188	1756.434692382812	138.5683135986328	-1023.676330566406	1753.202026367188	46.24562835693359	-1140.473876953125	1717.595825195312	218.5337677001953	-1142.979125976562	965.1183471679688	-52.86017227172852	-1084.483032226562	960.595703125	316.5505065917969	-991.64599609375	996.1165771484375	232.5466156005859	-1025.374877929688	1015.794616699219	0.2585115432739258	-1087.90869140625	519.9618530273438	1.968161463737488	-1112.580932617188	656.2235107421875	-37.20284652709961	-1178.654052734375	41.80290222167969	6.707450866699219	-1165.949951171875	288.9449157714844	-14.63918018341064	-965.9620361328125	41.56128692626953	91.47403717041016	-1027.078125	51.34856414794922	101.9281463623047	-1053.501586914062	40.55926513671875	-2.263573169708252	-1252.115966796875	47.33974456787109	52.17360305786133	-1097.931640625	525.348876953125	266.7853088378906	-1067.775146484375	792.9030151367188	310.1507873535156	-1223.32373046875	47.92993545532227	242.8331451416016	-1127.691772460938	403.7332153320312	267.2279357910156	-989.1066284179688	45.4083137512207	212.2185668945312	-1051.248901367188	50.77180480957031	180.7950897216797	-1074.564331054688	44.97943115234375	272.4953308105469	-1276.869140625	48.69857406616211	194.4939422607422	
4	0.03	-1207.55810546875	1075.273681640625	230.7968444824219	-1228.338623046875	1066.98486328125	68.3558349609375	-1225.791625976562	1122.5595703125	141.0880889892578	-1007.740905761719	1326.549682617188	125.684326171875	-1256.030639648438	1268.077026367188	140.3042602539062	-1214.448974609375	1537.485595703125	128.5336456298828	-1050.743408203125	1451.845703125	124.4894180297852	-1256.053100585938	1397.852294921875	210.5117645263672	-1236.737548828125	1496.269775390625	30.89989471435547	-1138.47607421875	1508.191772460938	-49.29117202758789	-1166.21875	1379.19970703125	-123.8566741943359	-1150.216552734375	1159.754272460938	-145.3905181884766	-1199.031005859375	1145.7587890625	-52.15712356567383	-1045.160522460938	912.9772338867188	-92.00289154052734	-1123.814086914062	894.0347290039062	-128.8383026123047	-1131.111572265625	1044.649169921875	-150.2080688476562	-1010.246215820312	732.8921508789062	-67.76740264892578	-1085.5205078125	805.9660034179688	-129.2272644042969	-1019.459106445312	820.6849975585938	-105.2836608886719	-1128.32421875	1523.045043945312	300.0333862304688	-1136.574829101562	1451.545043945312	371.2423095703125	-1160.869873046875	1181.861572265625	393.0539855957031	-1163.819946289062	1155.423828125	295.6658020019531	-1036.39892578125	920.4585571289062	356.7713928222656	-1097.534423828125	907.709716796875	424.8703308105469	-1147.360717773438	1106.467163085938	407.2587585449219	-1026.505859375	737.6594848632812	337.3099975585938	-1004.465393066406	811.1737060546875	369.1475524902344	-1057.17822265625	807.2507934570312	422.0268249511719	-1196.242309570312	1714.550903320312	85.21574401855469	-988.6146240234375	1756.388549804688	138.6400146484375	-1023.670715332031	1753.149780273438	46.29839706420898	-1140.597534179688	1717.606323242188	218.4918670654297	-1142.617553710938	965.077880859375	-52.88588714599609	-1084.452026367188	960.3901977539062	316.5472412109375	-991.1246337890625	996.1928100585938	232.6616668701172	-1024.844604492188	1015.747863769531	0.3577109575271606	-1087.982666015625	519.9152221679688	2.034820318222046	-1112.567626953125	656.1688842773438	-37.24571228027344	-1178.657836914062	41.79824447631836	6.706741333007812	-1166.046020507812	288.9605407714844	-14.67248249053955	-965.9707641601562	41.56655502319336	91.48139190673828	-1027.089965820312	51.34647750854492	101.9400177001953	-1053.497802734375	40.55890274047852	-2.250102043151855	-1252.115844726562	47.33152389526367	52.16551971435547	-1097.797241210938	525.271484375	266.8269653320312	-1067.424560546875	792.871337890625	310.1348876953125	-1223.3046875	47.93779373168945	242.825927734375	-1127.627685546875	403.7206115722656	267.2417297363281	-989.0946655273438	45.40216064453125	212.2137603759766	-1051.244018554688	50.76513290405273	180.7939147949219	-1074.577392578125	44.95771789550781	272.4999389648438	-1276.846313476562	48.69963455200195	194.4928131103516	
